<svg width="87" height="86" viewBox="0 0 87 86" fill="none" xmlns="http://www.w3.org/2000/svg">
<path fill-rule="evenodd" clip-rule="evenodd" d="M43.5 0C19.7523 0 0.5 19.2523 0.5 43C0.5 66.7477 19.7523 86 43.5 86C67.2477 86 86.5 66.7477 86.5 43C86.5 19.2523 67.2477 0 43.5 0ZM62.1385 35.7291C62.4818 35.3368 62.743 34.8798 62.907 34.385C63.071 33.8902 63.1344 33.3677 63.0934 32.848C63.0525 32.3284 62.908 31.8222 62.6685 31.3592C62.429 30.8963 62.0994 30.4858 61.699 30.1522C61.2985 29.8185 60.8354 29.5682 60.3368 29.4162C59.8383 29.2641 59.3143 29.2133 58.7958 29.2667C58.2773 29.3201 57.7747 29.4767 57.3176 29.7272C56.8605 29.9777 56.4582 30.3171 56.1342 30.7255L39.3251 50.8925L30.6274 42.1908C29.8901 41.4787 28.9027 41.0847 27.8777 41.0936C26.8528 41.1025 25.8723 41.5137 25.1475 42.2384C24.4228 42.9632 24.0116 43.9437 24.0027 44.9686C23.9938 45.9936 24.3878 46.981 25.0999 47.7183L36.8272 59.4455C37.2113 59.8294 37.6711 60.129 38.1774 60.3253C38.6838 60.5216 39.2254 60.6103 39.7679 60.5856C40.3103 60.561 40.8417 60.4236 41.3282 60.1822C41.8146 59.9408 42.2454 59.6007 42.5931 59.1836L62.1385 35.7291Z" fill="white"/>
</svg>
