<svg width="48" height="48" viewBox="0 0 48 48" fill="none" xmlns="http://www.w3.org/2000/svg">
<rect width="48" height="48" rx="8" fill="#B61B42"/>
<path fill-rule="evenodd" clip-rule="evenodd" d="M32.3497 11.9656H16.8193C14.3483 11.9656 12.3409 13.9566 12.3409 16.4025V31.6191C12.3409 34.0435 14.3702 36.0347 16.819 36.0347H30.6949V34.0216H16.9513C15.4734 34.0216 14.3702 32.9178 14.3702 31.511V16.511C14.3702 15.0606 15.4734 13.9785 16.9513 13.9785H32.2393C33.7176 13.9785 34.8204 15.0822 34.8204 16.511V25.4069C35.5045 26.0131 36.2102 26.6406 36.762 27.355C36.7839 27.3981 36.8281 27.4416 36.8501 27.4631V16.4025C36.8501 13.9566 34.8204 11.9653 32.3497 11.9653V11.9656Z" fill="#F68B1F"/>
<path fill-rule="evenodd" clip-rule="evenodd" d="M33.2763 15.4936C28.8202 15.6882 24.6504 19.4111 24.5845 23.8917C24.54 18.9998 19.9073 15.6229 15.9147 15.4717V21.0342C18.8044 21.1211 22.3563 21.0129 24.6065 23.9998C34.1586 23.9998 39.6078 32.5279 38.9018 40.0389H32.7688C33.6518 33.9998 31.3131 25.9045 24.6065 23.9998C19.6428 23.9998 16.1794 28.6101 15.9147 32.5061H21.5621C21.6503 29.4326 21.7607 26.0129 24.6065 23.9998C26.7685 21.0995 30.0334 21.1426 33.2763 21.0561V15.4936Z" fill="white"/>
</svg>
