<svg width="24" height="24" viewBox="0 0 24 24" fill="none" xmlns="http://www.w3.org/2000/svg">
<path fill-rule="evenodd" clip-rule="evenodd" d="M16.0017 14.7701C14.6152 14.7754 13.487 13.6556 13.4817 12.2691C13.4765 10.8826 14.5962 9.75431 15.9827 9.74904C17.3693 9.74381 18.4975 10.8635 18.5028 12.2501C18.5062 12.9162 18.2445 13.5563 17.7752 14.0291C17.306 14.5019 16.6679 14.7685 16.0017 14.7701V14.7701Z" stroke="#D4D4D4" stroke-width="1.5" stroke-linecap="round" stroke-linejoin="round"/>
<path fill-rule="evenodd" clip-rule="evenodd" d="M20.3787 21.004H11.625C11.2801 21.003 11.0008 20.7236 10.9998 20.3787V19.7535C11.0038 18.3739 12.1212 17.2565 13.5008 17.2524H18.5029C19.8825 17.2565 20.9999 18.3739 21.0039 19.7535V20.3787C21.0029 20.7236 20.7236 21.003 20.3787 21.004V21.004Z" stroke="#D4D4D4" stroke-width="1.5" stroke-linecap="round" stroke-linejoin="round"/>
<path d="M15.7249 5.99751C13.9678 3.48256 10.777 2.40613 7.85551 3.34277C4.93405 4.27941 2.96394 7.01048 2.99674 10.0782C3.02954 13.146 5.05761 15.8343 7.99842 16.7083" stroke="#D4D4D4" stroke-width="1.5" stroke-linecap="round" stroke-linejoin="round"/>
<path d="M11.3329 9.33203L9.66716 10.9997L8.66675 9.99931" stroke="#D4D4D4" stroke-width="1.5" stroke-linecap="round" stroke-linejoin="round"/>
</svg>
