<svg
  width="48"
  height="48"
  viewBox="0 0 48 48"
  fill="none"
  xmlns="http://www.w3.org/2000/svg"
>
  <rect width="48" height="48" rx="8" fill="#FFCB66" />
  <rect width="48" height="48" rx="8" fill="url(#paint0_linear_0_1)" />
  <g clip-path="url(#clip0_0_1)">
    <path
      d="M21.642 13.7265C22.062 12.8865 22.8195 12 24 12C25.1805 12 25.938 12.888 26.358 13.7265C26.7915 14.595 27 15.6465 27 16.5V22.0365L34.755 25.914C35.129 26.1007 35.4437 26.388 35.6636 26.7436C35.8835 27.0991 36 27.5089 36 27.927V30C35.9999 30.1089 35.9762 30.2164 35.9304 30.3152C35.8846 30.414 35.8178 30.5016 35.7348 30.5719C35.6517 30.6423 35.5543 30.6937 35.4493 30.7227C35.3444 30.7516 35.2344 30.7574 35.127 30.7395L26.8665 29.3625L26.304 32.742L28.281 34.719C28.3862 34.8239 28.4578 34.9577 28.4869 35.1033C28.5159 35.249 28.5011 35.4 28.4442 35.5372C28.3873 35.6744 28.291 35.7916 28.1674 35.874C28.0438 35.9564 27.8985 36.0003 27.75 36H20.25C20.1015 36.0003 19.9562 35.9564 19.8326 35.874C19.709 35.7916 19.6127 35.6744 19.5558 35.5372C19.4989 35.4 19.4841 35.249 19.5131 35.1033C19.5422 34.9577 19.6138 34.8239 19.719 34.719L21.6975 32.742L21.1335 29.3625L12.873 30.7395C12.7656 30.7574 12.6556 30.7516 12.5507 30.7227C12.4457 30.6937 12.3483 30.6423 12.2652 30.5719C12.1822 30.5016 12.1154 30.414 12.0696 30.3152C12.0238 30.2164 12.0001 30.1089 12 30L12 27.927C12 27.5089 12.1165 27.0991 12.3364 26.7436C12.5563 26.388 12.871 26.1007 13.245 25.914L21 22.0365V16.5C21 15.648 21.21 14.5935 21.642 13.7265ZM22.983 14.3985C22.6665 15.03 22.5 15.8535 22.5 16.5V22.5C22.5 22.6392 22.4613 22.7756 22.3882 22.894C22.315 23.0124 22.2104 23.1082 22.086 23.1705L13.914 27.2565C13.7896 27.3188 13.685 27.4146 13.6118 27.533C13.5387 27.6514 13.5 27.7878 13.5 27.927V29.115L21.627 27.7605C21.8229 27.7279 22.0237 27.7744 22.1854 27.8897C22.3471 28.005 22.4564 28.1797 22.4895 28.3755L23.2395 32.8755C23.2594 32.9936 23.2507 33.1147 23.2141 33.2288C23.1776 33.3428 23.1143 33.4464 23.0295 33.531L22.062 34.5H25.941L24.9705 33.531C24.8859 33.4466 24.8228 33.3432 24.7862 33.2295C24.7497 33.1157 24.7409 32.9949 24.7605 32.877L25.5105 28.377C25.5267 28.2798 25.5619 28.1867 25.6141 28.103C25.6663 28.0194 25.7344 27.9469 25.8147 27.8896C25.8949 27.8324 25.9857 27.7915 26.0817 27.7693C26.1778 27.7472 26.2773 27.7442 26.3745 27.7605L34.5 29.115V27.927C34.5 27.7878 34.4613 27.6514 34.3882 27.533C34.315 27.4146 34.2104 27.3188 34.086 27.2565L25.914 23.1705C25.7896 23.1082 25.685 23.0124 25.6118 22.894C25.5387 22.7756 25.5 22.6392 25.5 22.5V16.5C25.5 15.852 25.335 15.0315 25.017 14.3985C24.687 13.7385 24.3195 13.5 24 13.5C23.6805 13.5 23.313 13.737 22.983 14.3985Z"
      fill="white"
    />
  </g>
  <defs>
    <linearGradient
      id="paint0_linear_0_1"
      x1="24"
      y1="0"
      x2="24"
      y2="48"
      gradientUnits="userSpaceOnUse"
    >
      <stop stop-color="#285074" />
      <stop offset="1" stop-color="#3E719F" />
    </linearGradient>
    <clipPath id="clip0_0_1">
      <rect width="24" height="24" fill="white" transform="translate(12 12)" />
    </clipPath>
  </defs>
</svg>
